# xmcd CD database file
#
# Track frame offsets:
#	187
#	17650
#	36547
#
# Disc length: 718 seconds
#
# Revision: 0
# Processed by: cddbd v1.5PL3 Copyright (c) Steve Scherf et al.
# Submitted via: CDex 1.51
#
DISCID=1f02cc03
DTITLE=GiRL - ONE
DYEAR=1998
DGENRE=JPop
TTITLE0=ONE
TTITLE1=WiLD CHERRY
TTITLE2=ONE (Instrumental)
EXTD=YEAR: 1998
EXTT0=
EXTT1=
EXTT2=
PLAYORDER=
